<svg width="31" height="33" viewBox="0 0 31 33" fill="none" xmlns="http://www.w3.org/2000/svg">
<path d="M14.1459 1.26258C14.4012 1.12175 14.7842 0.892891 15.0043 0.756459C15.242 0.606823 15.4269 0.518802 15.4665 0.536406C15.5018 0.54961 15.6426 0.637631 15.7747 0.725652C15.9068 0.818074 16.1929 0.998517 16.413 1.12615C16.6331 1.25378 16.9985 1.45182 17.2274 1.56625C17.4563 1.68068 17.9141 1.88753 18.2399 2.01956C18.5657 2.15159 19.1115 2.34964 19.4505 2.45967C19.7895 2.56969 20.3441 2.72813 20.6831 2.81615C21.0221 2.89977 21.5195 3.0098 21.7836 3.05821C22.0478 3.10662 22.5144 3.18144 22.8181 3.21665C23.1219 3.25626 23.6546 3.30467 24.0067 3.32667C24.3589 3.34868 24.6494 3.37508 24.6538 3.37948C24.6627 3.38829 24.6847 3.80639 24.7067 4.31691C24.7331 4.88904 24.7331 5.67683 24.7067 6.3854C24.6847 7.01475 24.6274 7.87736 24.579 8.29986C24.5306 8.72236 24.4513 9.2989 24.4029 9.57616C24.3501 9.85343 24.2488 10.3419 24.1784 10.6544C24.1036 10.9669 23.9759 11.4554 23.8879 11.7327C23.8042 12.0099 23.6281 12.5161 23.4917 12.8549C23.3596 13.1938 23.1527 13.6603 23.0383 13.8892C22.9238 14.118 22.7257 14.4877 22.5936 14.7034C22.466 14.919 22.2547 15.2579 22.1226 15.4516C21.9905 15.6452 21.722 16.0105 21.5239 16.2658C21.3258 16.521 20.8416 17.0579 20.441 17.4584C20.0404 17.8589 19.5341 18.3343 19.3184 18.5147C19.0983 18.6951 18.7241 18.9812 18.482 19.1572C18.2399 19.3289 17.8525 19.5886 17.6236 19.7382C17.3947 19.8834 16.9985 20.1211 16.7432 20.2663C16.4878 20.4115 16.0917 20.6272 15.4445 20.9661L15.0924 20.79C14.8987 20.6932 14.4541 20.4512 14.1019 20.2575C13.7497 20.0639 13.2655 19.7778 13.0234 19.6194C12.7812 19.4653 12.4467 19.2365 12.275 19.1132C12.1033 18.9856 11.7775 18.7391 11.5486 18.5543C11.3197 18.3739 10.8575 17.9602 10.5185 17.6301C10.184 17.3044 9.71733 16.7983 9.48402 16.5078C9.25071 16.2173 8.93815 15.7992 8.78848 15.5836C8.64321 15.3679 8.4275 15.0291 8.31305 14.8354C8.19859 14.6418 7.98289 14.2369 7.82881 13.9332C7.67914 13.6295 7.44582 13.1058 7.30936 12.7669C7.17729 12.428 7.00561 11.9527 6.92637 11.7107C6.85153 11.4686 6.71947 11.0021 6.64023 10.6764C6.55659 10.3507 6.44213 9.79622 6.3805 9.44413C6.32327 9.09205 6.24403 8.51111 6.20441 8.14582C6.1692 7.78494 6.11637 7.04116 6.08556 6.49543C6.05914 5.9497 6.05034 5.15751 6.06355 4.73501C6.08115 4.31251 6.10757 3.83279 6.15599 3.37508L6.5742 3.34868C6.80311 3.33547 7.1905 3.30027 7.43262 3.27826C7.67473 3.25626 8.18098 3.18584 8.55517 3.12422C8.92935 3.06701 9.56326 2.93498 9.96385 2.83816C10.3645 2.74133 11.038 2.54329 11.4606 2.40245C11.8832 2.26162 12.5567 2.00636 12.9573 1.83472C13.3579 1.66308 13.8906 1.40341 14.1459 1.26258Z" fill="#F7FAFA"/>
<path d="M12.9177 22.4272C13.0498 22.3436 13.2655 22.2424 13.3975 22.1984C13.5384 22.1544 13.7849 22.1236 13.9918 22.1236C14.1855 22.1192 14.4408 22.1456 14.5641 22.1808C14.683 22.2116 14.8679 22.282 14.9691 22.3304C15.0748 22.3832 15.242 22.5108 15.3389 22.6165C15.4401 22.7177 15.5678 22.8893 15.6206 22.9994C15.6779 23.1094 15.7439 23.2854 15.7747 23.3955C15.8011 23.5055 15.8319 23.6287 15.8451 23.6727C15.8627 23.7387 15.8143 23.7475 14.8282 23.7475L14.793 23.6067C14.7754 23.5275 14.705 23.3955 14.6389 23.3118C14.5729 23.2282 14.4541 23.1314 14.3792 23.1006C14.3 23.0698 14.1283 23.0434 14.005 23.0434C13.8422 23.0434 13.7233 23.0742 13.6088 23.1446C13.5208 23.1974 13.4107 23.2898 13.3623 23.3514C13.3139 23.4131 13.2391 23.5495 13.195 23.6595C13.1466 23.796 13.1202 23.9984 13.1158 24.2977C13.1114 24.707 13.1246 24.7598 13.2567 25.0371C13.3623 25.2571 13.4372 25.3583 13.5604 25.4287C13.6529 25.4816 13.8245 25.5344 13.9478 25.5432C14.0667 25.5564 14.2383 25.5432 14.322 25.5168C14.4056 25.4904 14.5421 25.3979 14.6169 25.3143C14.6962 25.2263 14.7622 25.1163 14.7622 25.0679C14.7622 24.9842 14.793 24.9798 15.8187 24.9798L15.7923 25.1251C15.7747 25.1999 15.7219 25.3671 15.669 25.486C15.6162 25.6092 15.4842 25.8028 15.3741 25.9217C15.2685 26.0361 15.066 26.1901 14.9251 26.2605C14.7886 26.331 14.5289 26.4102 14.3528 26.441C14.1283 26.4762 13.939 26.4762 13.7057 26.4454C13.5252 26.4234 13.2655 26.353 13.1334 26.2957C13.0013 26.2341 12.7944 26.0977 12.6756 25.9921C12.5611 25.8821 12.4159 25.7148 12.3586 25.618C12.3014 25.5212 12.2134 25.3231 12.1649 25.1779C12.1033 25.0062 12.0637 24.7598 12.0461 24.4737C12.0329 24.1744 12.0461 23.9324 12.0901 23.7255C12.1253 23.5583 12.2046 23.3074 12.2706 23.1754C12.3366 23.0434 12.4555 22.8541 12.5347 22.7573C12.614 22.6605 12.7856 22.5108 12.9177 22.4272Z" fill="#F7FAFA"/>
<path d="M27.5549 22.3392C27.6737 22.282 27.8586 22.2072 27.9687 22.1808C28.0787 22.15 28.3252 22.1236 28.5189 22.1236C28.7126 22.1236 28.9548 22.1412 29.0604 22.1632C29.1617 22.1896 29.3289 22.2468 29.4346 22.2952C29.5358 22.3436 29.7075 22.4536 29.8132 22.5461C29.9232 22.6473 30.0553 22.8189 30.1301 22.9774C30.2006 23.1226 30.271 23.325 30.3238 23.6155H29.8088C29.2893 23.6155 29.2893 23.6155 29.2673 23.5055C29.2541 23.4439 29.2101 23.3426 29.1705 23.281C29.1264 23.2194 29.012 23.1314 28.9151 23.083C28.8183 23.039 28.6774 22.9994 28.607 22.9994C28.5365 22.9994 28.4001 23.0214 28.312 23.0434C28.2196 23.0698 28.0787 23.1446 28.0039 23.2106C27.9246 23.281 27.8102 23.4351 27.7486 23.5539C27.6517 23.7475 27.6385 23.8224 27.6385 24.3197C27.6385 24.7994 27.6517 24.8918 27.7354 25.0459C27.7838 25.1427 27.885 25.2747 27.9555 25.3407C28.0215 25.4067 28.1315 25.4816 28.1976 25.5036C28.268 25.53 28.4309 25.552 28.563 25.552C28.7038 25.552 28.8711 25.5212 28.9636 25.4772C29.056 25.4331 29.1617 25.3495 29.2013 25.2879C29.2453 25.2263 29.3025 25.1031 29.3774 24.8478H28.4529V24.0556H30.3899V24.3549C30.3899 24.5177 30.3634 24.7774 30.3282 24.9358C30.2974 25.0943 30.2138 25.3407 30.1433 25.4816C30.0729 25.6268 29.9232 25.8336 29.8132 25.9437C29.6987 26.0537 29.5006 26.1989 29.373 26.2605C29.2409 26.3266 29.0296 26.4014 28.9019 26.4278C28.7787 26.4542 28.5806 26.4762 28.4617 26.4762C28.3473 26.4762 28.1271 26.4454 27.9687 26.4058C27.8102 26.3706 27.5857 26.2869 27.4668 26.2209C27.348 26.1549 27.1763 26.0185 27.0838 25.9173C26.987 25.8116 26.8637 25.6312 26.8021 25.508C26.7405 25.3891 26.6612 25.1647 26.626 25.015C26.5908 24.861 26.56 24.5485 26.56 24.3197C26.56 24.082 26.5908 23.7872 26.626 23.6375C26.6656 23.4923 26.7449 23.2678 26.8021 23.1446C26.8637 23.017 27.009 22.8057 27.1279 22.6825C27.2467 22.5549 27.4404 22.4008 27.5549 22.3392Z" fill="#F7FAFA"/>
<path d="M0.4552 23.0874V22.6253V22.1632H3.75682V23.0874H2.65628V26.3882H1.64378V23.0874H0.4552Z" fill="#F7FAFA"/>
<path d="M4.28508 26.3882L4.27627 24.2757L4.26306 22.1632H5.23154C5.7642 22.1632 6.31007 22.1808 6.44213 22.2072C6.5742 22.2336 6.76349 22.2908 6.86034 22.3392C6.95718 22.3832 7.10245 22.4888 7.1861 22.5681C7.26974 22.6473 7.38419 22.8233 7.44582 22.9554C7.54267 23.1666 7.55147 23.2414 7.53387 23.5715C7.52066 23.8796 7.49425 23.9896 7.38859 24.1832C7.31376 24.3197 7.18169 24.4781 7.08044 24.5485C6.9836 24.6189 6.88675 24.6806 6.86914 24.685C6.84713 24.6894 7.02322 25.0723 7.69675 26.3838L6.55219 26.3926L5.84784 24.9358H5.29757V26.3882H4.28508Z" fill="#F7FAFA"/>
<path d="M7.86403 26.3486C7.86843 26.3266 8.18979 25.3759 8.57718 24.2361L9.28152 22.1632H10.5625L11.2361 24.2229C11.6103 25.3539 11.9228 26.3046 11.9316 26.331C11.9448 26.375 11.8216 26.3838 10.8707 26.3662L10.6066 25.5476L9.17587 25.552L9.06582 25.8909C9.00419 26.0801 8.95576 26.2693 8.95576 26.309C8.95576 26.3794 8.89853 26.3882 8.40549 26.3882C8.10174 26.3882 7.85963 26.3706 7.86403 26.3486Z" fill="#F7FAFA"/>
<path d="M16.391 26.3882V24.2757V22.1632H17.4035V23.0962C17.4035 23.9808 17.4079 24.0248 17.4739 23.9016C17.5136 23.8268 17.5708 23.7475 17.5972 23.7211C17.6236 23.6947 17.9141 23.3338 18.8342 22.1632L19.4505 22.1588C20.0404 22.1588 20.0668 22.1632 20.0008 22.238C19.9656 22.282 19.6618 22.6429 19.3228 23.0434C18.9883 23.4439 18.6757 23.8092 18.6273 23.8576C18.5437 23.9456 18.5481 23.9544 19.0455 24.7818C19.3228 25.2395 19.6486 25.7808 19.7763 25.9789C19.8995 26.1813 20.0008 26.353 20.0008 26.3662C20.0008 26.3794 19.7278 26.3882 18.7902 26.3882L18.6097 26.0713C18.5084 25.8953 18.2927 25.5212 18.1343 25.2439C17.9714 24.9666 17.8261 24.7378 17.8041 24.7378C17.7821 24.7378 17.6852 24.839 17.4035 25.1999V26.3882H16.391Z" fill="#F7FAFA"/>
<path d="M20.529 26.3882V24.2757V22.1632H21.5855V26.3882H20.529Z" fill="#F7FAFA"/>
<path d="M22.3339 26.3882L22.3251 24.2757L22.3119 22.1632H23.2584L24.086 23.4175C24.5394 24.104 24.918 24.6718 24.9312 24.6718C24.9444 24.6718 24.9488 24.1084 24.94 22.1632H25.9437V26.3882H24.9532L23.3244 23.9588L23.3024 26.3882H22.3339Z" fill="#F7FAFA"/>
<path d="M13.4768 27.7569C13.6308 27.6821 13.8289 27.6029 13.917 27.5809C14.0094 27.5633 14.2692 27.5412 14.5025 27.5368C14.7666 27.5324 15.0131 27.5545 15.1848 27.5985C15.3301 27.6381 15.5458 27.7217 15.6602 27.7877C15.7791 27.8537 15.9816 28.0166 16.1049 28.1486C16.2325 28.2806 16.391 28.5007 16.457 28.6327C16.5275 28.7647 16.6199 29.0244 16.6639 29.2048C16.7168 29.4161 16.7476 29.689 16.7476 29.975C16.7476 30.2743 16.7168 30.5252 16.6551 30.7672C16.6067 30.9609 16.5011 31.2381 16.4262 31.3834C16.347 31.5242 16.1841 31.7443 16.0608 31.8675C15.942 31.9863 15.7307 32.1403 15.5986 32.2064C15.4665 32.2768 15.242 32.3604 15.0968 32.3956C14.9515 32.4308 14.6874 32.4572 14.5113 32.4572C14.3352 32.4616 14.0887 32.4396 13.961 32.4132C13.8333 32.3868 13.6044 32.3032 13.4504 32.224C13.2655 32.1359 13.085 31.9951 12.9309 31.8323C12.8032 31.6958 12.6404 31.4582 12.5699 31.3041C12.4995 31.1545 12.4159 30.9213 12.385 30.7892C12.3498 30.6484 12.3234 30.3139 12.3278 29.997C12.3278 29.6097 12.3498 29.3633 12.4071 29.1608C12.4467 29.0024 12.5479 28.7559 12.6228 28.6107C12.6976 28.4655 12.8605 28.2498 12.9837 28.1222C13.1026 27.999 13.3271 27.8361 13.4768 27.7569Z" fill="#F7FAFA"/>
<path d="M7.54707 32.3736V29.975V27.5765L8.58158 27.5721L10.5846 30.5912V27.5765H11.6367L11.6411 32.3736H10.6066L9.61609 30.886C9.07462 30.0718 8.6168 29.3897 8.60359 29.3721C8.59038 29.3545 8.58598 30.0234 8.60359 32.3736H7.54707Z" fill="#F7FAFA"/>
<path d="M17.2494 28.8836C17.0469 28.2146 16.8796 27.6425 16.8796 27.6205C16.8796 27.5897 17.0997 27.5765 18.1255 27.5985L18.4952 29.0948C18.6977 29.9178 18.865 30.6352 18.8606 30.688C18.8606 30.7452 18.8782 30.7892 18.9046 30.7892C18.9266 30.7892 18.9487 30.754 18.9487 30.71C18.9487 30.6704 19.1071 29.9926 19.3008 29.2048C19.4945 28.4171 19.6618 27.7305 19.675 27.6733C19.697 27.5765 19.7102 27.5765 20.7315 27.5985L20.9604 28.5667C21.0881 29.0992 21.2554 29.8166 21.4799 30.7848L22.2767 27.5985L22.8798 27.5853C23.3464 27.5765 23.4785 27.5897 23.4653 27.6293C23.4565 27.6601 23.1439 28.7383 22.0962 32.3736H20.9516L20.5995 30.9521L20.2385 29.4997C20.2297 29.4821 20.2209 29.4117 20.2209 29.3457C20.2209 29.2797 20.0624 29.8606 19.8687 30.6352C19.675 31.4098 19.4989 32.1183 19.4329 32.3736H18.2883L18.2223 32.1623C18.1871 32.0479 18.0374 31.5374 17.8877 31.0313C17.7526 30.5563 17.4917 29.6889 17.2929 29.0282L17.2494 28.8836Z" fill="#F7FAFA"/>
<path d="M14.6307 2.37164C14.9828 2.1912 15.2866 2.02396 15.3086 2.00195H15.313C15.335 1.97995 15.3746 1.96234 15.401 1.96234C15.4231 1.96234 15.6652 2.08117 15.9293 2.23081C16.1934 2.38484 16.6204 2.60489 16.8758 2.72372C17.1311 2.84255 17.6065 3.045 17.9323 3.17263C18.258 3.30026 18.8039 3.49391 19.1429 3.60393C19.4818 3.71396 20.0365 3.8724 20.3755 3.95602C20.7144 4.04404 21.2119 4.14966 21.476 4.20248C21.7402 4.25089 22.1892 4.3213 22.4665 4.35651C22.7438 4.39172 23.1004 4.43573 23.545 4.47534L23.5758 5.03427C23.5891 5.34235 23.5847 6.00691 23.5626 6.51743C23.5406 7.02795 23.501 7.6485 23.4746 7.90376C23.4526 8.15902 23.3998 8.56392 23.3645 8.80597C23.3293 9.04803 23.2633 9.45293 23.2105 9.70819C23.162 9.96345 23.0696 10.3683 23.0124 10.6104C22.9507 10.8525 22.8143 11.3102 22.7086 11.6226C22.6074 11.9351 22.4181 12.4324 22.2948 12.7229C22.1716 13.0134 21.9515 13.4667 21.8018 13.7352C21.6521 14.0036 21.4276 14.3777 21.2999 14.5714C21.1679 14.765 21.0006 15.0115 20.9214 15.1215C20.8465 15.2315 20.6088 15.5264 20.3975 15.7816C20.1862 16.0369 19.7592 16.4902 19.4466 16.7939C19.1341 17.0976 18.6586 17.5201 18.3945 17.7313C18.126 17.947 17.6329 18.3078 17.294 18.5323C16.955 18.7567 16.4708 19.0604 16.2154 19.2057C15.9601 19.3509 15.6828 19.5049 15.5991 19.5445C15.4451 19.6194 15.4451 19.6194 15.0929 19.4433C14.8992 19.3465 14.5426 19.1572 14.3005 19.0164C14.0584 18.8756 13.6446 18.6159 13.3761 18.4311C13.1119 18.2506 12.7025 17.9514 12.4736 17.7665C12.2447 17.5817 11.8881 17.278 11.6812 17.0888C11.4743 16.9039 11.1133 16.5342 10.8756 16.2746C10.6379 16.0149 10.2769 15.588 10.0788 15.3195C9.87634 15.0511 9.59901 14.655 9.46254 14.4393C9.32607 14.2237 9.08396 13.7968 8.92988 13.4931C8.77581 13.1894 8.5645 12.7273 8.45445 12.4588C8.34439 12.1904 8.18592 11.7459 8.09347 11.4686C8.00543 11.1913 7.86896 10.694 7.78532 10.3683C7.70608 10.0427 7.60043 9.52775 7.5476 9.22407C7.49918 8.9204 7.42434 8.41428 7.38913 8.10181C7.35391 7.78933 7.30108 7.09397 7.27467 6.56144C7.24826 6.02891 7.23505 5.34675 7.24826 5.04308C7.26587 4.7394 7.28348 4.48854 7.28788 4.48414C7.29668 4.48414 7.58722 4.44453 7.9394 4.40492C8.29157 4.36531 8.84624 4.2861 9.172 4.22448C9.49776 4.16727 10.0524 4.04844 10.4046 3.96042C10.7568 3.8768 11.4215 3.67875 11.8793 3.52912C12.3416 3.37508 13.0019 3.12862 13.354 2.97898C13.7062 2.82495 14.2785 2.55648 14.6307 2.37164Z" fill="#846CF9"/>
<path d="M5.2937 24.1436L5.2981 23.5891L5.30251 23.0346L5.73392 23.0478C6.09049 23.061 6.19174 23.083 6.29299 23.1578C6.35902 23.2062 6.44266 23.3206 6.47348 23.4087C6.5131 23.5275 6.5131 23.6199 6.48228 23.7475C6.45587 23.8532 6.38544 23.9676 6.3062 24.0336C6.18294 24.1348 6.13891 24.1436 5.2937 24.1436Z" fill="#846CF9"/>
<path d="M9.67825 23.9764C9.7839 23.6331 9.87194 23.3162 9.87194 23.2722C9.87194 23.2282 9.88515 23.215 9.90716 23.2414C9.92917 23.2634 9.9908 23.4527 10.048 23.6595C10.1053 23.8664 10.2021 24.1964 10.3782 24.7554L9.90716 24.7598C9.47575 24.7598 9.43613 24.751 9.45814 24.6806C9.47135 24.641 9.56819 24.3241 9.67825 23.9764Z" fill="#846CF9"/>
<path d="M13.8119 28.8131C13.8823 28.7295 14.0232 28.6239 14.12 28.5799C14.2521 28.5183 14.3753 28.5007 14.5822 28.5095C14.798 28.5227 14.908 28.5491 15.0313 28.6327C15.1193 28.6943 15.2426 28.8131 15.3086 28.8968C15.3702 28.9804 15.4627 29.1784 15.5155 29.3369C15.5947 29.5789 15.6035 29.6934 15.5859 30.0851C15.5727 30.3755 15.5331 30.6264 15.4803 30.7672C15.4319 30.8948 15.3174 31.0665 15.1985 31.1853C15.0885 31.2953 14.9212 31.4054 14.8244 31.4362C14.7275 31.467 14.5911 31.4934 14.5162 31.4934C14.4458 31.4934 14.3093 31.467 14.2169 31.4362C14.12 31.4054 13.9748 31.3217 13.8911 31.2513C13.8031 31.1765 13.6886 31.0313 13.6358 30.9213C13.5786 30.8112 13.5125 30.5824 13.4817 30.4151C13.4465 30.2215 13.4377 29.9838 13.4597 29.777C13.4773 29.5965 13.5301 29.3369 13.583 29.2048C13.6358 29.0728 13.737 28.8924 13.8119 28.8131Z" fill="#846CF9"/>
<path d="M13.9701 4.21132C14.1286 4.15851 14.3927 4.0925 14.5644 4.05729C14.7361 4.02208 15.1191 3.99567 15.4228 3.99127C15.8102 3.99127 16.0831 4.01328 16.3473 4.07049C16.5542 4.1189 16.8491 4.20252 17.0076 4.26414C17.1661 4.32135 17.4214 4.43578 17.5799 4.515C17.7383 4.59422 18.0157 4.76146 18.1962 4.88469C18.3766 5.00351 18.6716 5.24557 18.8521 5.41721C19.0326 5.58445 19.2879 5.87492 19.4244 6.05536C19.5564 6.23581 19.7413 6.52188 19.8294 6.69352C19.9218 6.86516 20.0539 7.16883 20.1243 7.37568C20.1947 7.58253 20.2916 7.91701 20.3356 8.12386C20.3928 8.39232 20.4148 8.67399 20.4148 9.1361C20.4148 9.63342 20.3928 9.85787 20.3224 10.1483C20.2696 10.3552 20.1551 10.7205 20.0671 10.9625C19.9746 11.2046 19.7985 11.6095 19.6709 11.8648C19.5432 12.12 19.2483 12.6613 19.0106 13.075C18.7728 13.4887 18.4383 14.0521 18.2622 14.3293C18.0861 14.6066 17.6855 15.1919 17.373 15.6276C17.0648 16.0634 16.5806 16.7147 16.3032 17.0756C16.0259 17.4365 15.7442 17.7754 15.6737 17.8326C15.5945 17.903 15.4976 17.9382 15.3876 17.9382C15.2643 17.9382 15.1895 17.9074 15.075 17.7974C14.9958 17.7181 14.7052 17.3573 14.4367 16.992C14.1638 16.6311 13.7588 16.0722 13.5431 15.7597C13.323 15.4472 12.9796 14.9279 12.7771 14.6154C12.579 14.3029 12.24 13.7352 12.0199 13.3611C11.8042 12.987 11.4653 12.3533 11.2672 11.9528C11.0691 11.5523 10.8358 11.0109 10.7433 10.7425C10.6553 10.474 10.5496 10.1043 10.5144 9.91949C10.4792 9.73024 10.4484 9.35175 10.4484 9.08329C10.4484 8.81042 10.4748 8.42753 10.5144 8.23388C10.5496 8.04024 10.6377 7.70136 10.7125 7.48571C10.7873 7.27005 10.937 6.92237 11.0471 6.71552C11.1571 6.50867 11.3728 6.183 11.5225 5.98935C11.6766 5.7957 11.9187 5.53164 12.0596 5.39961C12.2004 5.26758 12.469 5.04752 12.6494 4.91549C12.8299 4.77906 13.1381 4.58541 13.3318 4.48859C13.5255 4.38737 13.8116 4.26414 13.9701 4.21132Z" fill="#F7FAFA"/>
<path d="M14.102 5.81772C14.4542 5.67248 14.8768 5.48764 15.0485 5.40842C15.2202 5.3292 15.3919 5.26318 15.4315 5.26318C15.4755 5.26318 15.6648 5.338 15.8497 5.43042C16.039 5.52285 16.4616 5.71209 16.7874 5.84852C17.1131 5.98496 17.4741 6.1566 17.5885 6.23141C17.7074 6.30623 17.8571 6.45587 17.9319 6.5703C18.0244 6.71553 18.064 6.83876 18.064 6.95759C18.064 7.05441 18.0332 7.18204 17.9935 7.24366C17.9539 7.30527 17.8131 7.46371 17.4477 7.8378L17.5137 8.00064C17.5489 8.09306 17.5929 8.31311 17.6062 8.48475C17.6238 8.73121 17.6106 8.88525 17.5357 9.15811C17.4873 9.35176 17.3596 9.68624 17.254 9.90629C17.1527 10.1219 16.9855 10.4344 16.8842 10.5973C16.7125 10.8789 16.7037 10.9009 16.7786 10.9581C16.8182 10.9934 17.254 11.2222 17.7426 11.4643C18.6275 11.9044 18.6363 11.9088 18.6363 12.0496C18.6407 12.1596 18.5746 12.2785 18.3677 12.5469C18.2225 12.7406 17.9231 13.0971 17.7074 13.3391C17.4917 13.5812 17.1219 13.9597 16.8886 14.1797C16.6509 14.3998 16.3075 14.7078 16.127 14.8619C15.9465 15.0203 15.7176 15.2096 15.4447 15.4208L15.2026 15.2404C15.0705 15.1435 14.8108 14.9367 14.6303 14.7783C14.4498 14.6242 14.0624 14.2677 13.7763 13.9817C13.4901 13.7 13.0719 13.2643 12.8562 13.009C12.6361 12.7538 12.4028 12.4589 12.3324 12.3489C12.2619 12.2388 12.2091 12.1112 12.2047 12.0628C12.2047 12.0144 12.2311 11.9528 12.2619 11.922C12.2928 11.8956 12.7418 11.6623 13.2524 11.407C13.7675 11.1518 14.1901 10.9317 14.1901 10.9185C14.1901 10.9053 14.1064 10.7733 14.0052 10.6193C13.9039 10.4696 13.7279 10.1483 13.6134 9.90629C13.4945 9.66423 13.3713 9.34736 13.3317 9.20212C13.2964 9.05689 13.2656 8.78842 13.2656 8.60798C13.2656 8.42754 13.2964 8.17228 13.3977 7.81579L13.1732 7.60454C13.0455 7.49011 12.9047 7.31847 12.8562 7.22165C12.7946 7.08962 12.777 6.9972 12.7946 6.84756C12.8122 6.71993 12.8694 6.5923 12.9487 6.49548C13.0191 6.41186 13.16 6.27983 13.27 6.20941C13.3757 6.13459 13.7499 5.95855 14.102 5.81772Z" fill="#846CF9"/>
<path d="M14.9821 6.09932C15.0041 6.05091 15.0789 5.9805 15.1493 5.94529H15.1449C15.2154 5.91008 15.321 5.88367 15.3871 5.87927C15.4707 5.87927 15.5631 5.93209 15.6644 6.03331C15.7568 6.12573 15.8185 6.23136 15.8185 6.29737C15.8185 6.35899 15.7832 6.46461 15.7392 6.53943C15.6996 6.60985 15.6204 6.68907 15.5631 6.71547C15.5103 6.73748 15.4047 6.75948 15.3342 6.75948C15.2462 6.75948 15.1581 6.71547 15.0701 6.62745C14.9732 6.53063 14.938 6.45581 14.938 6.34138C14.938 6.25776 14.9556 6.14774 14.9821 6.09932Z" fill="#F7FAFA"/>
<path d="M13.6482 7.28761C13.6922 7.2524 13.8155 7.19959 13.9255 7.16878C14.0708 7.12917 14.533 7.11597 15.5367 7.12477C16.492 7.13357 16.9894 7.15558 17.0863 7.19079C17.1655 7.22159 17.2536 7.28321 17.2756 7.33162C17.2976 7.38003 17.3196 7.42844 17.3196 7.44165C17.3196 7.45485 16.4788 7.46365 15.4487 7.46365C13.9828 7.46365 13.5778 7.45045 13.5778 7.40644C13.5734 7.38003 13.6086 7.32282 13.6482 7.28761Z" fill="#F7FAFA"/>
<path d="M13.7715 8.55071C13.7891 8.43628 13.8111 8.31305 13.8287 8.27344C13.8463 8.23383 13.8859 8.21623 13.9255 8.23383C13.9652 8.25144 14.1941 8.31305 14.4362 8.37027C14.6783 8.43188 15.0569 8.4935 15.2726 8.5023C15.6116 8.5199 15.7612 8.5023 16.3291 8.37467C16.8001 8.26464 16.9982 8.23824 17.0203 8.27344C17.0379 8.29985 17.0555 8.44949 17.0555 8.60792C17.0555 8.76636 17.0247 9.01282 16.985 9.15805C16.9454 9.30329 16.8442 9.55855 16.7561 9.73019C16.6725 9.90183 16.5184 10.1263 16.4172 10.2363C16.3115 10.3463 16.1222 10.4916 15.9945 10.562C15.8317 10.65 15.6732 10.6984 15.4927 10.7116C15.2902 10.7248 15.1669 10.7072 14.9644 10.628C14.7752 10.5576 14.6299 10.4608 14.4538 10.2847C14.2953 10.1263 14.1544 9.92384 14.0488 9.70819C13.9608 9.52774 13.8595 9.24167 13.8199 9.07003C13.7715 8.88079 13.7583 8.68274 13.7715 8.55071Z" fill="#F7FAFA"/>
<path d="M15.1537 12.0187C15.0217 11.7767 14.85 11.473 14.7752 11.3454V11.3498C14.7003 11.2221 14.6431 11.1165 14.6519 11.1165C14.6607 11.1165 14.7707 11.1473 14.9028 11.1825C15.0349 11.2177 15.2594 11.2486 15.4047 11.2486C15.5499 11.2486 15.7832 11.2221 15.9197 11.1913C16.0606 11.1649 16.175 11.1429 16.175 11.1473C16.175 11.1561 16.0078 11.4554 15.8009 11.8207C15.594 12.1816 15.4179 12.4764 15.4091 12.472C15.4003 12.4632 15.2858 12.2608 15.1537 12.0187Z" fill="#F7FAFA"/>
<path d="M16.7033 12.4324L16.8178 12.1772L16.9322 11.9263L17.007 12.164C17.0599 12.3532 17.0995 12.4104 17.1875 12.4368C17.2492 12.4544 17.368 12.472 17.6057 12.4808L17.4957 12.5777C17.4341 12.6305 17.3372 12.7053 17.2844 12.7405C17.1919 12.8065 17.1875 12.8109 17.2536 13.0486C17.2888 13.1806 17.3196 13.295 17.3196 13.3038C17.3196 13.3082 17.2139 13.2466 16.8574 13.0134L16.6681 13.141C16.5668 13.2114 16.4744 13.2642 16.4612 13.2598C16.448 13.251 16.4656 13.141 16.5712 12.7845L16.153 12.4985L16.7033 12.4324Z" fill="#F7FAFA"/>
</svg>
